<svg width="32" height="32" viewBox="0 0 32 32" fill="none" xmlns="http://www.w3.org/2000/svg">
<path d="M2.66675 29.3333V22.6667L9.33341 16L16.0001 22.6667L9.33341 29.3333H2.66675Z" fill="#EDCAA9" stroke="#DE9551" stroke-width="2" stroke-linecap="round" stroke-linejoin="round"/>
<path d="M12.6667 19.3334L21.3334 10.6667" stroke="#DE9551" stroke-width="2" stroke-linecap="round" stroke-linejoin="round"/>
<path d="M22.6667 2.66669L29.3333 9.33335L28.6667 10C28.2294 10.4386 27.7099 10.7867 27.1379 11.0241C26.5659 11.2616 25.9527 11.3838 25.3333 11.3838C24.714 11.3838 24.1007 11.2616 23.5287 11.0241C22.9567 10.7867 22.4372 10.4386 22 10C21.5614 9.56278 21.2134 9.04326 20.9759 8.47126C20.7384 7.89926 20.6162 7.28602 20.6162 6.66669C20.6162 6.04736 20.7384 5.43411 20.9759 4.86211C21.2134 4.29011 21.5614 3.7706 22 3.33335L22.6667 2.66669Z" stroke="#DE9551" stroke-width="2" stroke-linecap="round" stroke-linejoin="round"/>
</svg>
